<svg id="圖層_1" data-name="圖層 1" xmlns="http://www.w3.org/2000/svg" viewBox="0 0 89.93 89.93"><title>noun_about_734099</title><path d="M65.6,7.79A45,45,0,0,0,11.34,73.11,45.45,45.45,0,0,0,57.87,94.29C79.34,90.52,94.59,71.51,95,50A45.6,45.6,0,0,0,65.6,7.79ZM64.05,89.27A41.72,41.72,0,0,1,14.19,28.53,42.11,42.11,0,0,1,58.44,9.14c19.38,4,32.89,21.3,33.23,40.85C91.37,67.44,80.66,83.33,64.05,89.27Z" transform="translate(-5.04 -5.04)"/><path d="M50,11.72A38.28,38.28,0,1,0,88.27,50,38.28,38.28,0,0,0,50,11.72Zm0,14.11a8.42,8.42,0,1,1-8.42,8.42A8.42,8.42,0,0,1,50,25.83Zm15.31,47.6H34.68V62.78c0-9.09,5.71-16.45,12.76-16.45h5.11c7.05,0,12.76,7.36,12.76,16.45Z" transform="translate(-5.04 -5.04)"/></svg>