<svg id="圖層_1" data-name="圖層 1" xmlns="http://www.w3.org/2000/svg" viewBox="0 0 32 32"><title>noun_contact us_345781</title><polygon points="19.73 15.15 23.52 19.98 23.52 12.78 19.73 15.15"/><polygon points="13.16 15.7 9.18 20.76 22.86 20.76 18.87 15.68 16.01 17.47 13.16 15.7"/><polygon points="8.5 20 12.3 15.17 8.5 12.81 8.5 20"/><path d="M16,0A16,16,0,1,0,32,16,16,16,0,0,0,16,0Zm8.52,21.76H7.5V9.91h17Z"/><polygon points="16.01 16.3 23.52 11.6 23.52 10.91 8.5 10.91 8.5 11.63 16.01 16.3"/></svg>