<svg xmlns="http://www.w3.org/2000/svg" viewBox="0 0 85.18 94.85"><title>noun_Donate_1334475</title><g id="圖層_1" data-name="圖層 1"><path d="M50,53.4A25.45,25.45,0,1,0,24.5,28,25.52,25.52,0,0,0,50,53.4Zm-.6-22.8c-5.4-1.9-8.1-4.9-8.1-8.9a7.59,7.59,0,0,1,5.9-7.5V11.4a1.11,1.11,0,0,1,1.1-1.1h2.8a1.11,1.11,0,0,1,1.1,1.1v2.5A12.91,12.91,0,0,1,56.9,16a1.32,1.32,0,0,1,.2,1.9l-1.9,2a1.23,1.23,0,0,1-1.6.2A6.25,6.25,0,0,0,50.2,19c-.8,0-3.5.3-3.5,2.6,0,.7,0,2.3,4.6,3.9,2.3.8,7.6,2.7,7.6,8.6A7.65,7.65,0,0,1,52.2,42v2.6a1.11,1.11,0,0,1-1.1,1.1H48.3a1.11,1.11,0,0,1-1.1-1.1V41.8a16.29,16.29,0,0,1-5.5-3,1.3,1.3,0,0,1-.1-1.9l1.9-2a1.24,1.24,0,0,1,1.7-.1c1.2.9,3.1,2.1,4.9,2.1,3.5,0,3.5-2,3.5-2.8C53.5,32.9,53.2,31.9,49.4,30.6Z" transform="translate(-7.4 -2.5)"/><path d="M84.8,71.6a89.37,89.37,0,0,1-10.4,2.5c-1.5,2.4-4.4,4.4-8.6,5a17.22,17.22,0,0,1-3.3.2c-3,0-6.5-.4-10.3-.8-.3,0-.6-.1-.9-.1a2,2,0,0,1-1.7-2,1.93,1.93,0,0,1,2.1-1.8c.3,0,.6.1.9.1,5,.6,9.7,1.1,12.7.6,5.5-.9,7.2-4.2,6.9-7-.2-2.3-1.9-4.6-4.6-4.4a95.81,95.81,0,0,1-12.8-.7c-5.1-.5-10.3-1-14-.5a52.19,52.19,0,0,0-9.3,3.1c-.9.3-1.7.7-2.6,1.1V91.3c7.5,2.7,16.7,5.6,22.1,6,11,.9,32.4-11.5,38.6-15.6C95.7,77.9,91.6,69.3,84.8,71.6Z" transform="translate(-7.4 -2.5)"/><path d="M22.6,62.6H9.9a2.48,2.48,0,0,0-2.5,2.5V93a2.48,2.48,0,0,0,2.5,2.5H22.5A2.48,2.48,0,0,0,25,93V65.2A2.42,2.42,0,0,0,22.6,62.6Z" transform="translate(-7.4 -2.5)"/></g></svg>