<svg id="圖層_1" data-name="圖層 1" xmlns="http://www.w3.org/2000/svg" viewBox="0 0 76 76"><path d="M59.87,39.26a.39.39,0,0,0-.33-.06l-14.76,4a.38.38,0,0,0-.28.36v2.18L60,41.54v-2A.37.37,0,0,0,59.87,39.26Z" transform="translate(-12 -12)"/><path d="M41.34,58.11a1.35,1.35,0,1,0,1.35,1.35h0A1.34,1.34,0,0,0,41.34,58.11Z" transform="translate(-12 -12)"/><path d="M50,12A38,38,0,1,0,88,50,38,38,0,0,0,50,12Zm0,64.11A26.11,26.11,0,1,1,76.11,50,26.11,26.11,0,0,1,50,76.11Z" transform="translate(-12 -12)"/><path d="M58.66,51.82A1.35,1.35,0,1,0,60,53.18h0A1.36,1.36,0,0,0,58.66,51.82Z" transform="translate(-12 -12)"/><path d="M50,25.7A24.3,24.3,0,1,0,74.3,50,24.3,24.3,0,0,0,50,25.7ZM61.82,53.27h0A3.16,3.16,0,1,1,58.66,50a3,3,0,0,1,1.35.32V43.41L44.5,47.66v11.8a3.16,3.16,0,1,1-3.16-3.16h0a3,3,0,0,1,1.35.32v-13a2.17,2.17,0,0,1,1.61-2.1l14.76-4a2.19,2.19,0,0,1,1.9.37,2.16,2.16,0,0,1,.86,1.74Z" transform="translate(-12 -12)"/></svg>